# xmcd
#
# Track frame offsets: 
#        150
#        23894
#        44434
#        64319
#        82136
#        97542
#        116017
#        135600
#        151235
#        170254
#        187684
#        206491
#        223914
#        245527
#        269200
#        284587
#        309507
#        326367
#        347344
#
# Disc length: 4795 seconds
#
# Revision: 0
# Processed by: cddbd v1.5.1PL0 Copyright (c) Steve Scherf et al.
# Submitted via: ExactAudioCopy v0.95a3
#
DISCID=1412b913
DTITLE=JOE COCKER - The Best Of... CD-2   79'55''
DYEAR=2005
DGENRE=R and B
TTITLE0=Seven Days
TTITLE1=Angeline
TTITLE2=Pot to Use My Imagination
TTITLE3=Civilized Man
TTITLE4=The Last One To Know
TTITLE5=Two Wrongs
TTITLE6=Heart of the Matter
TTITLE7=Night Calls
TTITLE8=On My Way Home
TTITLE9=Don't Let Me Be Misunderstood
TTITLE10=Standing Knee Deep In a River
TTITLE11=I'm Your Man
TTITLE12=Tonight
TTITLE13=Respect Yourself
TTITLE14=Something
TTITLE15=Five Woman
TTITLE16=First We Take Manhattan
TTITLE17=The One
TTITLE18=She's Good To Me
EXTD=
EXTT0=
EXTT1=
EXTT2=
EXTT3=
EXTT4=
EXTT5=
EXTT6=
EXTT7=
EXTT8=
EXTT9=
EXTT10=
EXTT11=
EXTT12=
EXTT13=
EXTT14=
EXTT15=
EXTT16=
EXTT17=
EXTT18=
PLAYORDER=
